<mxfile host="app.diagrams.net" modified="2023-06-05T15:23:08.577Z" agent="Mozilla/5.0 (Windows NT 10.0; Win64; x64) AppleWebKit/537.36 (KHTML, like Gecko) Chrome/113.0.0.0 Safari/537.36" etag="IT3mdDVEdQei28RJPTbC" version="21.1.5" type="device">
  <diagram id="R2lEEEUBdFMjLlhIrx00" name="Page-1">
    <mxGraphModel dx="880" dy="522" grid="1" gridSize="10" guides="1" tooltips="1" connect="1" arrows="1" fold="1" page="1" pageScale="1" pageWidth="850" pageHeight="1100" math="0" shadow="0" extFonts="Permanent Marker^https://fonts.googleapis.com/css?family=Permanent+Marker">
      <root>
        <mxCell id="0" />
        <mxCell id="1" parent="0" />
        <mxCell id="-_ir-ghXEWpNskHoDH2m-7" value="" style="endArrow=none;html=1;rounded=0;exitX=0.5;exitY=0;exitDx=0;exitDy=0;" parent="1" source="-_ir-ghXEWpNskHoDH2m-3" edge="1">
          <mxGeometry width="50" height="50" relative="1" as="geometry">
            <mxPoint x="764" y="409" as="sourcePoint" />
            <mxPoint x="770" y="370" as="targetPoint" />
          </mxGeometry>
        </mxCell>
        <mxCell id="-_ir-ghXEWpNskHoDH2m-5" value="" style="endArrow=none;html=1;rounded=0;entryX=0.5;entryY=1;entryDx=0;entryDy=0;exitX=0.558;exitY=-0.017;exitDx=0;exitDy=0;exitPerimeter=0;" parent="1" source="-_ir-ghXEWpNskHoDH2m-3" edge="1">
          <mxGeometry width="50" height="50" relative="1" as="geometry">
            <mxPoint x="765" y="410" as="sourcePoint" />
            <mxPoint x="713" y="360" as="targetPoint" />
          </mxGeometry>
        </mxCell>
        <mxCell id="3UbCZm5MmitlTJjC-oGR-38" value="" style="endArrow=none;html=1;rounded=0;" parent="1" edge="1">
          <mxGeometry width="50" height="50" relative="1" as="geometry">
            <mxPoint x="580" y="402" as="sourcePoint" />
            <mxPoint x="610" y="360" as="targetPoint" />
          </mxGeometry>
        </mxCell>
        <mxCell id="3UbCZm5MmitlTJjC-oGR-16" value="" style="endArrow=none;html=1;rounded=0;" parent="1" target="3UbCZm5MmitlTJjC-oGR-15" edge="1">
          <mxGeometry width="50" height="50" relative="1" as="geometry">
            <mxPoint x="419" y="246.75" as="sourcePoint" />
            <mxPoint x="425" y="163.25" as="targetPoint" />
          </mxGeometry>
        </mxCell>
        <mxCell id="3UbCZm5MmitlTJjC-oGR-14" value="" style="endArrow=none;html=1;rounded=0;" parent="1" target="3UbCZm5MmitlTJjC-oGR-13" edge="1">
          <mxGeometry width="50" height="50" relative="1" as="geometry">
            <mxPoint x="419" y="246.75" as="sourcePoint" />
            <mxPoint x="425" y="163.25" as="targetPoint" />
          </mxGeometry>
        </mxCell>
        <mxCell id="3UbCZm5MmitlTJjC-oGR-12" value="" style="endArrow=none;html=1;rounded=0;entryX=0.5;entryY=1;entryDx=0;entryDy=0;" parent="1" target="3UbCZm5MmitlTJjC-oGR-11" edge="1">
          <mxGeometry width="50" height="50" relative="1" as="geometry">
            <mxPoint x="420" y="243.5" as="sourcePoint" />
            <mxPoint x="420" y="167" as="targetPoint" />
            <Array as="points">
              <mxPoint x="426" y="180" />
            </Array>
          </mxGeometry>
        </mxCell>
        <mxCell id="3UbCZm5MmitlTJjC-oGR-10" value="" style="endArrow=none;html=1;rounded=0;entryX=1;entryY=1;entryDx=0;entryDy=0;" parent="1" target="3UbCZm5MmitlTJjC-oGR-9" edge="1">
          <mxGeometry width="50" height="50" relative="1" as="geometry">
            <mxPoint x="420" y="240" as="sourcePoint" />
            <mxPoint x="390" y="218.28" as="targetPoint" />
          </mxGeometry>
        </mxCell>
        <mxCell id="3UbCZm5MmitlTJjC-oGR-18" value="" style="edgeStyle=orthogonalEdgeStyle;rounded=0;orthogonalLoop=1;jettySize=auto;html=1;" parent="1" source="3UbCZm5MmitlTJjC-oGR-2" target="3UbCZm5MmitlTJjC-oGR-17" edge="1">
          <mxGeometry relative="1" as="geometry" />
        </mxCell>
        <mxCell id="3UbCZm5MmitlTJjC-oGR-2" value="user" style="rounded=0;whiteSpace=wrap;html=1;" parent="1" vertex="1">
          <mxGeometry x="360" y="240" width="120" height="60" as="geometry" />
        </mxCell>
        <mxCell id="3UbCZm5MmitlTJjC-oGR-3" value="" style="endArrow=none;html=1;rounded=0;" parent="1" edge="1">
          <mxGeometry width="50" height="50" relative="1" as="geometry">
            <mxPoint x="420" y="240" as="sourcePoint" />
            <mxPoint x="441.71572875253787" y="218.28427124746213" as="targetPoint" />
          </mxGeometry>
        </mxCell>
        <mxCell id="3UbCZm5MmitlTJjC-oGR-5" value="&lt;u&gt;id_user&lt;/u&gt;" style="ellipse;whiteSpace=wrap;html=1;" parent="1" vertex="1">
          <mxGeometry x="420" y="170" width="75" height="50" as="geometry" />
        </mxCell>
        <mxCell id="3UbCZm5MmitlTJjC-oGR-7" value="" style="endArrow=none;html=1;rounded=0;" parent="1" edge="1">
          <mxGeometry width="50" height="50" relative="1" as="geometry">
            <mxPoint x="420" y="241.72" as="sourcePoint" />
            <mxPoint x="390" y="220" as="targetPoint" />
          </mxGeometry>
        </mxCell>
        <mxCell id="3UbCZm5MmitlTJjC-oGR-8" value="nama" style="ellipse;whiteSpace=wrap;html=1;" parent="1" vertex="1">
          <mxGeometry x="340" y="180" width="75" height="50" as="geometry" />
        </mxCell>
        <mxCell id="3UbCZm5MmitlTJjC-oGR-9" value="alamat" style="ellipse;whiteSpace=wrap;html=1;" parent="1" vertex="1">
          <mxGeometry x="310" y="120" width="75" height="50" as="geometry" />
        </mxCell>
        <mxCell id="3UbCZm5MmitlTJjC-oGR-11" value="email" style="ellipse;whiteSpace=wrap;html=1;" parent="1" vertex="1">
          <mxGeometry x="388" y="110" width="75" height="50" as="geometry" />
        </mxCell>
        <mxCell id="3UbCZm5MmitlTJjC-oGR-13" value="no telp" style="ellipse;whiteSpace=wrap;html=1;" parent="1" vertex="1">
          <mxGeometry x="480" y="110" width="75" height="50" as="geometry" />
        </mxCell>
        <mxCell id="3UbCZm5MmitlTJjC-oGR-15" value="no ktp" style="ellipse;whiteSpace=wrap;html=1;" parent="1" vertex="1">
          <mxGeometry x="510" y="170" width="75" height="50" as="geometry" />
        </mxCell>
        <mxCell id="3UbCZm5MmitlTJjC-oGR-21" value="" style="edgeStyle=orthogonalEdgeStyle;rounded=0;orthogonalLoop=1;jettySize=auto;html=1;" parent="1" source="3UbCZm5MmitlTJjC-oGR-17" target="3UbCZm5MmitlTJjC-oGR-20" edge="1">
          <mxGeometry relative="1" as="geometry" />
        </mxCell>
        <mxCell id="3UbCZm5MmitlTJjC-oGR-17" value="mengajukan" style="rhombus;whiteSpace=wrap;html=1;rounded=0;" parent="1" vertex="1">
          <mxGeometry x="580" y="230" width="80" height="80" as="geometry" />
        </mxCell>
        <mxCell id="3UbCZm5MmitlTJjC-oGR-20" value="pengajuan" style="whiteSpace=wrap;html=1;rounded=0;" parent="1" vertex="1">
          <mxGeometry x="720" y="240" width="120" height="60" as="geometry" />
        </mxCell>
        <mxCell id="3UbCZm5MmitlTJjC-oGR-22" value="&lt;u&gt;id_pengajuan&lt;/u&gt;" style="ellipse;whiteSpace=wrap;html=1;" parent="1" vertex="1">
          <mxGeometry x="690" y="140" width="75" height="50" as="geometry" />
        </mxCell>
        <mxCell id="3UbCZm5MmitlTJjC-oGR-25" value="" style="endArrow=none;html=1;rounded=0;entryX=0.5;entryY=1;entryDx=0;entryDy=0;" parent="1" target="3UbCZm5MmitlTJjC-oGR-22" edge="1">
          <mxGeometry width="50" height="50" relative="1" as="geometry">
            <mxPoint x="780" y="240" as="sourcePoint" />
            <mxPoint x="830" y="190" as="targetPoint" />
          </mxGeometry>
        </mxCell>
        <mxCell id="3UbCZm5MmitlTJjC-oGR-26" value="id_user" style="ellipse;whiteSpace=wrap;html=1;" parent="1" vertex="1">
          <mxGeometry x="800" y="140" width="75" height="50" as="geometry" />
        </mxCell>
        <mxCell id="3UbCZm5MmitlTJjC-oGR-27" value="" style="endArrow=none;html=1;rounded=0;entryX=0.227;entryY=1.02;entryDx=0;entryDy=0;entryPerimeter=0;" parent="1" target="3UbCZm5MmitlTJjC-oGR-26" edge="1">
          <mxGeometry width="50" height="50" relative="1" as="geometry">
            <mxPoint x="782" y="240" as="sourcePoint" />
            <mxPoint x="730" y="190" as="targetPoint" />
          </mxGeometry>
        </mxCell>
        <mxCell id="3UbCZm5MmitlTJjC-oGR-28" value="History" style="rounded=0;whiteSpace=wrap;html=1;" parent="1" vertex="1">
          <mxGeometry x="360" y="400" width="120" height="60" as="geometry" />
        </mxCell>
        <mxCell id="3UbCZm5MmitlTJjC-oGR-30" value="&lt;u&gt;id_history&lt;/u&gt;" style="ellipse;whiteSpace=wrap;html=1;" parent="1" vertex="1">
          <mxGeometry x="340" y="310" width="75" height="50" as="geometry" />
        </mxCell>
        <mxCell id="3UbCZm5MmitlTJjC-oGR-31" value="" style="endArrow=none;html=1;rounded=0;" parent="1" target="3UbCZm5MmitlTJjC-oGR-30" edge="1">
          <mxGeometry width="50" height="50" relative="1" as="geometry">
            <mxPoint x="425" y="400" as="sourcePoint" />
            <mxPoint x="475" y="350" as="targetPoint" />
          </mxGeometry>
        </mxCell>
        <mxCell id="3UbCZm5MmitlTJjC-oGR-32" value="id_pengajuan" style="ellipse;whiteSpace=wrap;html=1;" parent="1" vertex="1">
          <mxGeometry x="420" y="320" width="75" height="50" as="geometry" />
        </mxCell>
        <mxCell id="3UbCZm5MmitlTJjC-oGR-33" value="" style="endArrow=none;html=1;rounded=0;" parent="1" target="3UbCZm5MmitlTJjC-oGR-32" edge="1">
          <mxGeometry width="50" height="50" relative="1" as="geometry">
            <mxPoint x="425" y="400" as="sourcePoint" />
            <mxPoint x="394" y="358" as="targetPoint" />
          </mxGeometry>
        </mxCell>
        <mxCell id="3UbCZm5MmitlTJjC-oGR-34" value="id_user" style="ellipse;whiteSpace=wrap;html=1;" parent="1" vertex="1">
          <mxGeometry x="285" y="350" width="75" height="50" as="geometry" />
        </mxCell>
        <mxCell id="3UbCZm5MmitlTJjC-oGR-35" value="" style="endArrow=none;html=1;rounded=0;" parent="1" target="3UbCZm5MmitlTJjC-oGR-34" edge="1">
          <mxGeometry width="50" height="50" relative="1" as="geometry">
            <mxPoint x="425" y="402" as="sourcePoint" />
            <mxPoint x="394" y="360" as="targetPoint" />
          </mxGeometry>
        </mxCell>
        <mxCell id="3UbCZm5MmitlTJjC-oGR-36" value="Kategori" style="rounded=0;whiteSpace=wrap;html=1;" parent="1" vertex="1">
          <mxGeometry x="510" y="400" width="120" height="60" as="geometry" />
        </mxCell>
        <mxCell id="3UbCZm5MmitlTJjC-oGR-37" value="&lt;u&gt;id_kategori&lt;/u&gt;" style="ellipse;whiteSpace=wrap;html=1;" parent="1" vertex="1">
          <mxGeometry x="582.5" y="320" width="75" height="50" as="geometry" />
        </mxCell>
        <mxCell id="-_ir-ghXEWpNskHoDH2m-1" value="id_user" style="ellipse;whiteSpace=wrap;html=1;" parent="1" vertex="1">
          <mxGeometry x="505" y="310" width="75" height="50" as="geometry" />
        </mxCell>
        <mxCell id="-_ir-ghXEWpNskHoDH2m-2" value="" style="endArrow=none;html=1;rounded=0;exitX=0.558;exitY=-0.017;exitDx=0;exitDy=0;exitPerimeter=0;" parent="1" source="3UbCZm5MmitlTJjC-oGR-36" target="-_ir-ghXEWpNskHoDH2m-1" edge="1">
          <mxGeometry width="50" height="50" relative="1" as="geometry">
            <mxPoint x="560" y="402" as="sourcePoint" />
            <mxPoint x="590" y="360" as="targetPoint" />
          </mxGeometry>
        </mxCell>
        <mxCell id="-_ir-ghXEWpNskHoDH2m-3" value="tb_namakategori" style="rounded=0;whiteSpace=wrap;html=1;" parent="1" vertex="1">
          <mxGeometry x="670" y="400" width="120" height="60" as="geometry" />
        </mxCell>
        <mxCell id="-_ir-ghXEWpNskHoDH2m-4" value="&lt;u&gt;id_namaktg&lt;/u&gt;" style="ellipse;whiteSpace=wrap;html=1;" parent="1" vertex="1">
          <mxGeometry x="680" y="320" width="75" height="50" as="geometry" />
        </mxCell>
        <mxCell id="-_ir-ghXEWpNskHoDH2m-6" value="namaktg" style="ellipse;whiteSpace=wrap;html=1;" parent="1" vertex="1">
          <mxGeometry x="755" y="330" width="75" height="50" as="geometry" />
        </mxCell>
      </root>
    </mxGraphModel>
  </diagram>
</mxfile>
